<svg width="44" height="44" viewBox="0 0 44 44" fill="none" xmlns="http://www.w3.org/2000/svg">
<path d="M41.9049 0H2.09548C1.53951 0 1.0067 0.22063 0.613839 0.613488C0.22098 1.00635 0 1.53947 0 2.09513V41.9045C0 42.4605 0.22098 42.9933 0.613839 43.3862C1.0067 43.779 1.53955 44 2.09548 44H41.9049C42.4605 44 42.9937 43.779 43.3865 43.3862C43.7794 42.9933 44 42.4605 44 41.9045V2.09513C44 1.53951 43.7794 1.00635 43.3865 0.613488C42.9937 0.22063 42.4605 0 41.9049 0ZM32.9163 16.1544L20.3448 28.7258C19.9523 29.1162 19.4212 29.3351 18.8677 29.3351C18.3142 29.3351 17.7832 29.1162 17.3907 28.7258L11.1049 22.4401C10.643 21.9006 10.4858 21.164 10.6872 20.4832C10.8885 19.802 11.4213 19.2695 12.1022 19.0682C12.783 18.8665 13.52 19.024 14.0591 19.4859L18.8573 24.2841L29.9408 13.2005C30.4803 12.7386 31.2169 12.5811 31.8981 12.7828C32.579 12.9841 33.1118 13.5166 33.3131 14.1978C33.5145 14.8786 33.3573 15.6152 32.8954 16.1547L32.9163 16.1544Z" fill="black"/>
</svg>
