<svg width="414" height="55" viewBox="0 0 414 55" fill="none" xmlns="http://www.w3.org/2000/svg">
<path d="M28.6188 38.9712C28.6188 37.1591 29.3954 36.9002 31.2075 37.9357C34.3139 39.7478 37.4203 41.301 37.4203 41.301C37.4203 40.2655 38.4558 39.4889 40.2679 40.0066C42.0799 40.5244 43.892 40.7833 43.892 40.7833C43.892 40.7833 42.8565 38.4534 42.3388 37.418C41.5622 35.6059 42.3388 34.5704 43.1154 34.3116C43.1154 34.3116 42.0799 33.5349 41.3033 33.0172C39.7501 31.9817 40.009 30.6874 41.5622 30.1697C43.6332 29.1342 46.4807 28.0987 46.4807 28.0987C45.7041 27.581 44.6686 26.2866 45.7041 24.4746C46.7396 22.9214 48.5517 20.5915 48.5517 20.5915C48.5517 20.5915 45.7041 20.5915 43.6332 20.5915C41.8211 20.5915 41.3033 19.0383 41.3033 18.0029C41.3033 18.0029 38.4558 20.0738 36.3848 21.3681C34.5728 22.6625 33.0196 21.3681 33.2784 19.2972C33.7962 16.1908 34.055 12.5666 34.055 12.5666C33.0196 13.6021 31.2075 13.3432 30.172 11.79C28.8777 9.20134 27.5833 6.09492 27.5833 6.09492C27.5833 6.09492 26.289 9.20134 24.9947 11.79C24.218 13.3432 22.406 13.6021 21.3705 12.8255C21.3705 12.8255 21.6294 16.4496 22.1471 19.5561C22.406 21.3681 20.8528 22.6625 19.0407 21.3681C16.9697 20.0738 13.8633 18.0029 13.8633 18.0029C13.8633 19.0383 13.3456 20.3327 11.5335 20.5915C9.46256 20.5915 6.61501 20.5915 6.61501 20.5915C6.61501 20.5915 8.42709 22.9214 9.46256 24.4746C10.498 26.0278 9.46256 27.581 8.68596 28.0987C8.68596 28.0987 11.2746 29.3931 13.6045 30.1697C15.1577 30.9463 15.6754 31.9817 13.8633 33.0172C13.3456 33.5349 12.0512 34.3116 12.0512 34.3116C13.0867 34.5704 13.8633 35.6059 13.0867 37.418C12.569 38.4534 11.5335 40.7833 11.5335 40.7833C11.5335 40.7833 13.3456 40.2655 15.1577 40.0066C16.9697 39.4889 17.7463 40.5244 18.0052 41.301C18.0052 41.301 21.1116 39.4889 24.218 37.9357C25.7713 36.9002 26.8067 37.418 26.8067 38.9712V43.3719C26.8067 45.9606 26.289 48.5493 25.5124 50.1025C13.8633 48.8082 4.02633 39.4889 4.02633 27.0632C4.02633 14.3787 14.6399 4.02398 27.8422 4.02398C41.0445 4.02398 51.6581 14.3787 51.6581 27.0632C51.6581 38.9712 42.3388 48.8082 30.4309 50.1025V53.2089C44.4098 51.9146 55.2822 40.7833 55.2822 27.0632C55.2822 12.3078 42.8566 0.658691 27.5833 0.658691C12.569 0.658691 0.143311 12.3078 0.143311 26.8044C0.143311 39.4889 9.72143 50.1025 22.406 52.4323C24.4769 52.9501 25.7713 53.2089 27.0656 54.5033C28.3599 51.9146 28.6188 46.7372 28.6188 43.8897V38.9712Z" fill="#F01428"/>
<path d="M139.673 40.7833V12.8255H153.393C160.642 12.8255 164.007 15.9319 164.266 19.8149C164.266 21.627 164.007 23.4391 162.712 24.7334C161.418 26.0278 160.9 26.5455 158.571 27.8399L168.925 41.0421H161.418L152.099 29.1342H145.886V40.7833H139.673ZM145.886 25.51H148.734C156.241 25.51 157.794 24.2157 157.794 20.5915C157.794 16.9674 154.429 16.4497 149.51 16.4497H145.886V25.51Z" fill="#2E2A25"/>
<path d="M78.3215 40.7833L90.4883 12.8255H97.9954L110.162 40.7833H102.655L99.2898 33.2761H86.3464L82.9811 40.7833H78.3215ZM87.8996 29.6519H97.4777L92.5592 18.5206L87.8996 29.6519Z" fill="#2E2A25"/>
<path d="M125.177 12.8255H118.705V40.7833H125.177V12.8255Z" fill="#2E2A25"/>
<path d="M215.522 39.7478C212.415 41.0421 208.532 41.5599 203.873 41.5599C198.436 41.5599 194.036 40.2655 190.929 37.6768C187.823 35.0882 186.27 31.464 186.27 26.8044C186.27 22.1447 187.823 18.2617 190.929 15.9319C194.036 13.3432 198.436 12.0489 204.39 12.0489C208.014 12.0489 211.639 12.3078 215.522 13.0844V17.744C211.38 16.4496 207.497 15.9319 204.649 15.9319C201.025 15.9319 198.436 16.9674 196.365 18.7795C194.553 20.5915 193.518 23.4391 193.518 26.8044C193.518 30.1697 194.553 32.7583 196.624 34.8293C198.695 36.6414 201.543 37.6768 205.167 37.6768C208.532 37.6768 212.156 36.9002 215.522 35.6059V39.7478Z" fill="#2E2A25"/>
<path d="M223.547 40.7833L235.713 12.8255H243.22L255.387 40.7833H247.88L244.515 33.2761H231.571L228.206 40.7833H223.547ZM233.383 29.6519H242.962L238.302 18.5206L233.383 29.6519Z" fill="#2E2A25"/>
<path d="M304.572 40.7833L316.739 12.8255H324.246L336.413 40.7833H328.906L325.541 33.2761H312.597L309.232 40.7833H304.572ZM314.15 29.6519H323.729L318.81 18.5206L314.15 29.6519Z" fill="#2E2A25"/>
<path d="M395.694 18.5206L400.612 29.6519H391.034L395.694 18.5206ZM393.623 12.8255L381.456 40.7833H386.116L389.481 33.2761H402.424L405.79 40.7833H413.297L401.13 12.8255H393.623Z" fill="#2E2A25"/>
<path d="M288.264 40.7833L270.143 19.8149V40.7833H264.707V12.8255H272.214L289.817 32.7583V12.8255H295.253V40.7833H288.264Z" fill="#2E2A25"/>
<path d="M345.473 40.7833V12.8255H358.935C363.853 12.8255 367.477 14.1198 370.066 16.1908C372.655 18.5206 373.949 21.8859 373.949 26.0278C373.949 30.6874 372.655 34.3116 369.807 36.6414C366.959 39.23 363.335 40.5244 358.417 40.5244H345.473V40.7833ZM351.945 36.9002H356.864C360.229 36.9002 362.818 36.1236 364.63 34.3116C366.442 32.4995 367.218 30.1697 367.218 26.5455C367.218 23.9568 366.442 21.627 365.147 19.8149C364.112 18.5206 363.076 17.744 361.782 17.2263C360.488 16.7085 358.676 16.4497 356.087 16.4497H352.204V36.9002H351.945Z" fill="#2E2A25"/>
</svg>
