<svg width="303" height="241" viewBox="0 0 303 241" fill="none" xmlns="http://www.w3.org/2000/svg">
<path d="M154.747 134.216C154.747 127.914 157.448 127.014 163.75 130.615C174.553 136.917 185.357 142.319 185.357 142.319C185.357 138.717 188.958 136.017 195.26 137.817C201.562 139.618 207.864 140.518 207.864 140.518C207.864 140.518 204.262 132.415 202.462 128.814C199.761 122.512 202.462 118.911 205.163 118.011C205.163 118.011 201.562 115.31 198.861 113.51C193.459 109.908 194.359 105.407 199.761 103.606C206.963 100.005 216.867 96.4042 216.867 96.4042C214.166 94.6036 210.565 90.1022 214.166 83.8003C217.767 78.3986 224.069 70.2961 224.069 70.2961C224.069 70.2961 214.166 70.2961 206.964 70.2961C200.662 70.2961 198.861 64.8944 198.861 61.2933C198.861 61.2933 188.958 68.4955 181.756 72.9969C175.454 77.4983 170.052 72.9969 170.952 65.7947C172.753 54.9913 173.653 42.3873 173.653 42.3873C170.052 45.9885 163.75 45.0882 160.149 39.6865C155.648 30.6837 151.146 19.8804 151.146 19.8804C151.146 19.8804 146.645 30.6837 142.143 39.6865C139.442 45.0882 133.141 45.9885 129.539 43.2876C129.539 43.2876 130.44 55.8916 132.24 66.6949C133.141 72.9969 127.739 77.4983 121.437 72.9969C114.235 68.4955 103.431 61.2933 103.431 61.2933C103.431 64.8944 101.631 69.3958 95.3288 70.2961C88.1265 70.2961 78.2233 70.2961 78.2233 70.2961C78.2233 70.2961 84.5252 78.3986 88.1264 83.8003C91.7274 89.202 88.1263 94.6036 85.4254 96.4042C85.4254 96.4042 94.4284 100.906 102.531 103.606C107.933 106.307 109.733 109.908 103.431 113.51C101.631 115.31 97.1294 118.011 97.1294 118.011C100.731 118.911 103.431 122.512 100.731 128.814C98.93 132.415 95.3288 140.518 95.3288 140.518C95.3288 140.518 101.631 138.717 107.933 137.817C114.235 136.017 116.935 139.618 117.836 142.319C117.836 142.319 128.639 136.017 139.443 130.615C144.844 127.014 148.445 128.814 148.445 134.216V149.521C148.445 158.524 146.645 167.526 143.944 172.928C103.431 168.427 69.2206 136.017 69.2206 92.8031C69.2206 48.6893 106.132 12.6781 152.046 12.6781C197.961 12.6781 234.872 48.6893 234.872 92.8031C234.872 134.216 202.462 168.427 161.049 172.928V183.731C209.665 179.23 247.476 140.518 247.476 92.8031C247.476 41.4871 204.263 0.974457 151.146 0.974457C98.93 0.974457 55.7164 41.4871 55.7164 91.9028C55.7164 136.017 89.0268 172.928 133.141 181.031C140.343 182.831 144.844 183.731 149.346 188.233C153.847 179.23 154.747 161.224 154.747 151.321L154.747 134.216Z" fill="#F01428"/>
<path d="M55.7054 239.325V214.091H68.0887C74.631 214.091 77.6681 216.895 77.902 220.399C77.902 222.035 77.6676 223.67 76.4999 224.839C75.3315 226.007 74.8647 226.474 72.7618 227.642L82.1075 239.558H75.3315L66.9206 228.811H61.313V239.325H55.7054ZM61.313 225.54H63.8832C70.6589 225.54 72.0607 224.371 72.0607 221.1C72.0607 217.829 69.0232 217.362 64.584 217.362H61.313V225.54Z" fill="#2E2A25"/>
<path d="M0.331665 239.325L11.3131 214.091H18.0888L29.07 239.325H22.2943L19.2572 232.549H7.57452L4.53741 239.325H0.331665ZM8.97657 229.278H17.6214L13.182 219.231L8.97657 229.278Z" fill="#2E2A25"/>
<path d="M42.6213 214.091H36.7802V239.325H42.6213V214.091Z" fill="#2E2A25"/>
<path d="M124.164 238.39C121.36 239.558 117.855 240.026 113.65 240.026C108.743 240.026 104.771 238.857 101.967 236.521C99.1636 234.184 97.7617 230.913 97.7617 226.708C97.7617 222.502 99.1636 218.997 101.967 216.895C104.771 214.558 108.743 213.39 114.117 213.39C117.388 213.39 120.659 213.624 124.164 214.325V218.53C120.425 217.362 116.921 216.895 114.351 216.895C111.079 216.895 108.743 217.829 106.874 219.465C105.238 221.1 104.304 223.67 104.304 226.708C104.304 229.745 105.238 232.082 107.108 233.951C108.977 235.586 111.547 236.521 114.818 236.521C117.855 236.521 121.126 235.82 124.164 234.652V238.39Z" fill="#2E2A25"/>
<path d="M131.407 239.325L142.388 214.091H149.164L160.145 239.325H153.369L150.332 232.549H138.649L135.612 239.325H131.407ZM140.285 229.278H148.93L144.724 219.231L140.285 229.278Z" fill="#2E2A25"/>
<path d="M204.537 239.325L215.519 214.091H222.295L233.276 239.325H226.5L223.463 232.549H211.78L208.743 239.325H204.537ZM213.182 229.278H221.827L217.388 219.231L213.182 229.278Z" fill="#2E2A25"/>
<path d="M286.781 219.231L291.22 229.278H282.575L286.781 219.231ZM284.911 214.091L273.93 239.325H278.135L281.173 232.549H292.855L295.893 239.325H302.668L291.687 214.091H284.911Z" fill="#2E2A25"/>
<path d="M173.463 220.399V239.325H168.556V214.091H175.332L191.22 232.082V214.091H196.126V239.325H189.818L173.463 220.399Z" fill="#2E2A25"/>
<path d="M241.453 239.325V214.091H253.603C258.042 214.091 261.313 215.259 263.65 217.128C265.986 219.231 267.154 222.269 267.154 226.007C267.154 230.212 265.986 233.483 263.416 235.586C260.846 237.923 257.575 239.091 253.136 239.091H241.453V239.325ZM247.295 235.82H251.734C254.771 235.82 257.108 235.119 258.743 233.483C260.379 231.848 261.08 229.745 261.08 226.474C261.08 224.138 260.379 222.035 259.211 220.399C258.276 219.231 257.341 218.53 256.173 218.063C255.005 217.596 253.369 217.362 251.033 217.362H247.528V235.82H247.295Z" fill="#2E2A25"/>
</svg>
