<svg width="44" height="44" viewBox="0 0 44 44" fill="none" xmlns="http://www.w3.org/2000/svg">
<path d="M36.1895 16.9578L36.575 6.89256C36.6179 5.90748 35.7612 5.00797 34.7333 5.05085L24.7102 5.47917C24.3247 5.522 23.9821 5.65049 23.7251 5.90748L7.83485 21.7557C7.23521 22.3553 7.27804 23.3833 7.96334 24.0258L17.6005 33.663C18.243 34.3054 19.2709 34.3911 19.8706 33.7915L35.7609 17.9012C36.0179 17.6442 36.1892 17.3015 36.1892 16.9589L36.1895 16.9578ZM31.735 11.7323C30.6214 11.7323 29.722 10.8328 29.722 9.71925C29.722 8.60568 30.6215 7.70622 31.735 7.70622C32.8486 7.70622 33.7481 8.60568 33.7481 9.71925C33.7481 10.8328 32.8486 11.7323 31.735 11.7323Z" fill="black"/>
<path d="M32.9344 22.5254L19.8705 35.5462C19.4421 36.103 18.457 36.0174 17.6003 35.4177L9.41954 27.2797L8.47725 28.6503C8.0061 29.3356 8.22026 30.3636 8.99123 30.8776L20.1705 38.6729C20.9415 39.1869 21.9695 39.1012 22.4406 38.3731L33.2342 22.8255C33.4055 22.6113 33.1057 22.3543 32.9344 22.5256L32.9344 22.5254Z" fill="black"/>
</svg>
