<svg width="44" height="44" viewBox="0 0 44 44" fill="none" xmlns="http://www.w3.org/2000/svg">
<path d="M14.608 3.51999C10.33 3.51999 6.86401 6.98599 6.86401 11.264V11.9679C6.85885 12.3399 7.19597 12.6829 7.56795 12.6829C7.93994 12.6829 8.27729 12.3399 8.27189 11.9679V11.264C8.27189 7.74179 11.0855 4.92799 14.6079 4.92799C18.1301 4.92799 20.9439 7.7416 20.9439 11.264V16.1919H18.8318C18.0517 16.1919 17.4239 16.8199 17.4239 17.5997V30.2717C17.4239 31.0518 18.052 31.6796 18.8318 31.6796H35.7278C36.5078 31.6796 37.1356 31.0515 37.1356 30.2717V17.5997C37.1356 16.8197 36.5076 16.1919 35.7278 16.1919H22.3518V11.264C22.3518 6.98599 18.886 3.51999 14.608 3.51999ZM27.28 20.416C28.4466 20.416 29.3921 21.3616 29.3921 22.5281C29.3921 23.1532 29.1198 23.7143 28.6882 24.101V26.0481C28.6882 26.8282 28.0601 27.456 27.2803 27.456C26.5003 27.456 25.8725 26.8279 25.8725 26.0481V24.101C25.4408 23.7143 25.1685 23.1532 25.1685 22.5281C25.1685 21.3616 26.1134 20.416 27.28 20.416Z" fill="black"/>
</svg>
