<svg width="605" height="266" viewBox="0 0 605 266" fill="none" xmlns="http://www.w3.org/2000/svg">
<path d="M40.7051 10.0117V22.9453C40.7051 24.3398 40.4089 25.5885 39.8164 26.6914C39.2331 27.7943 38.349 28.6693 37.1641 29.3164C35.9792 29.9544 34.4889 30.2734 32.6934 30.2734C30.1322 30.2734 28.1816 29.6035 26.8418 28.2637C25.5111 26.9147 24.8457 25.1237 24.8457 22.8906V10.0117H28.127V22.6035C28.127 24.2715 28.5189 25.502 29.3027 26.2949C30.0866 27.0879 31.2578 27.4844 32.8164 27.4844C33.8919 27.4844 34.7669 27.2975 35.4414 26.9238C36.125 26.541 36.6263 25.985 36.9453 25.2559C37.2734 24.5176 37.4375 23.6289 37.4375 22.5898V10.0117H40.7051ZM53.2559 14.5781C55.0514 14.5781 56.4915 15.2344 57.5762 16.5469C58.6699 17.8594 59.2168 19.8099 59.2168 22.3984C59.2168 24.112 58.9616 25.5566 58.4512 26.7324C57.9499 27.8991 57.2435 28.7832 56.332 29.3848C55.4297 29.9772 54.377 30.2734 53.1738 30.2734C52.4082 30.2734 51.7428 30.1732 51.1777 29.9727C50.6126 29.7721 50.1296 29.5124 49.7285 29.1934C49.3275 28.8652 48.9902 28.5098 48.7168 28.127H48.5254C48.571 28.4915 48.612 28.8971 48.6484 29.3438C48.694 29.7812 48.7168 30.1823 48.7168 30.5469V36.7129H45.4902V14.8652H48.1152L48.5664 16.957H48.7168C48.9993 16.5286 49.3411 16.1322 49.7422 15.7676C50.1523 15.403 50.6445 15.1159 51.2188 14.9062C51.8021 14.6875 52.4811 14.5781 53.2559 14.5781ZM52.3945 17.2031C51.5104 17.2031 50.7995 17.3809 50.2617 17.7363C49.7331 18.0827 49.3457 18.6068 49.0996 19.3086C48.8626 20.0104 48.735 20.89 48.7168 21.9473V22.3984C48.7168 23.5195 48.8307 24.472 49.0586 25.2559C49.2956 26.0306 49.6829 26.623 50.2207 27.0332C50.7676 27.4342 51.5059 27.6348 52.4355 27.6348C53.2194 27.6348 53.8665 27.4206 54.377 26.9922C54.8965 26.5638 55.2839 25.9531 55.5391 25.1602C55.7943 24.3672 55.9219 23.4329 55.9219 22.3574C55.9219 20.7259 55.6302 19.459 55.0469 18.5566C54.4727 17.6543 53.5885 17.2031 52.3945 17.2031ZM69.0332 30.2734C67.6022 30.2734 66.3626 29.9954 65.3145 29.4395C64.2663 28.8835 63.4596 28.0312 62.8945 26.8828C62.3294 25.7344 62.0469 24.276 62.0469 22.5078C62.0469 20.6667 62.3568 19.1628 62.9766 17.9961C63.5964 16.8294 64.4531 15.9681 65.5469 15.4121C66.6497 14.8561 67.9121 14.5781 69.334 14.5781C70.2363 14.5781 71.0521 14.6693 71.7812 14.8516C72.5195 15.0247 73.1439 15.2389 73.6543 15.4941L72.6973 18.0645C72.1413 17.8366 71.5716 17.6452 70.9883 17.4902C70.4049 17.3353 69.8444 17.2578 69.3066 17.2578C68.4225 17.2578 67.6842 17.4538 67.0918 17.8457C66.5085 18.2376 66.071 18.821 65.7793 19.5957C65.4967 20.3704 65.3555 21.332 65.3555 22.4805C65.3555 23.5924 65.5013 24.5312 65.793 25.2969C66.0846 26.0534 66.5176 26.6276 67.0918 27.0195C67.666 27.4023 68.3724 27.5938 69.2109 27.5938C70.0404 27.5938 70.7832 27.4935 71.4395 27.293C72.0957 27.0924 72.7155 26.8327 73.2988 26.5137V29.3027C72.7246 29.6309 72.1094 29.8724 71.4531 30.0273C70.7969 30.1914 69.9902 30.2734 69.0332 30.2734ZM90.252 22.3984C90.252 23.6562 90.0879 24.7728 89.7598 25.748C89.4316 26.7233 88.9531 27.5482 88.3242 28.2227C87.6953 28.888 86.9388 29.3984 86.0547 29.7539C85.1706 30.1003 84.1725 30.2734 83.0605 30.2734C82.0215 30.2734 81.069 30.1003 80.2031 29.7539C79.3372 29.3984 78.5853 28.888 77.9473 28.2227C77.3184 27.5482 76.8307 26.7233 76.4844 25.748C76.138 24.7728 75.9648 23.6562 75.9648 22.3984C75.9648 20.7305 76.252 19.3177 76.8262 18.1602C77.4095 16.9935 78.2389 16.1048 79.3145 15.4941C80.39 14.8835 81.6706 14.5781 83.1562 14.5781C84.5508 14.5781 85.7812 14.8835 86.8477 15.4941C87.9141 16.1048 88.748 16.9935 89.3496 18.1602C89.9512 19.3268 90.252 20.7396 90.252 22.3984ZM79.2734 22.3984C79.2734 23.5013 79.4056 24.4447 79.6699 25.2285C79.9434 26.0124 80.3626 26.6139 80.9277 27.0332C81.4928 27.4434 82.222 27.6484 83.1152 27.6484C84.0085 27.6484 84.7376 27.4434 85.3027 27.0332C85.8678 26.6139 86.2826 26.0124 86.5469 25.2285C86.8112 24.4447 86.9434 23.5013 86.9434 22.3984C86.9434 21.2956 86.8112 20.3613 86.5469 19.5957C86.2826 18.821 85.8678 18.2331 85.3027 17.832C84.7376 17.4219 84.0039 17.2168 83.1016 17.2168C81.7708 17.2168 80.8001 17.6634 80.1895 18.5566C79.5788 19.4499 79.2734 20.7305 79.2734 22.3984ZM111.047 14.5781C112.742 14.5781 114.018 15.0156 114.875 15.8906C115.741 16.7656 116.174 18.1693 116.174 20.1016V30H112.961V20.6758C112.961 19.5273 112.738 18.6615 112.291 18.0781C111.844 17.4948 111.165 17.2031 110.254 17.2031C108.978 17.2031 108.057 17.6133 107.492 18.4336C106.936 19.2448 106.658 20.4251 106.658 21.9746V30H103.445V20.6758C103.445 19.9102 103.345 19.2721 103.145 18.7617C102.953 18.2422 102.657 17.8548 102.256 17.5996C101.855 17.3353 101.349 17.2031 100.738 17.2031C99.8542 17.2031 99.1478 17.4036 98.6191 17.8047C98.0996 18.2057 97.7259 18.7982 97.498 19.582C97.2702 20.3568 97.1562 21.3092 97.1562 22.4395V30H93.9434V14.8652H96.4453L96.8965 16.9023H97.0742C97.3841 16.3737 97.7669 15.9408 98.2227 15.6035C98.6875 15.2572 99.2025 15.002 99.7676 14.8379C100.333 14.6647 100.921 14.5781 101.531 14.5781C102.661 14.5781 103.614 14.7786 104.389 15.1797C105.163 15.5716 105.742 16.1732 106.125 16.9844H106.371C106.845 16.1641 107.506 15.5579 108.354 15.166C109.201 14.7741 110.099 14.5781 111.047 14.5781ZM123.871 14.8652V30H120.658V14.8652H123.871ZM122.285 9.06836C122.777 9.06836 123.201 9.20052 123.557 9.46484C123.921 9.72917 124.104 10.1849 124.104 10.832C124.104 11.4701 123.921 11.9258 123.557 12.1992C123.201 12.4635 122.777 12.5957 122.285 12.5957C121.775 12.5957 121.342 12.4635 120.986 12.1992C120.64 11.9258 120.467 11.4701 120.467 10.832C120.467 10.1849 120.64 9.72917 120.986 9.46484C121.342 9.20052 121.775 9.06836 122.285 9.06836ZM136.367 14.5781C138.072 14.5781 139.398 15.0202 140.346 15.9043C141.303 16.7793 141.781 18.1875 141.781 20.1289V30H138.568V20.7305C138.568 19.5547 138.327 18.6751 137.844 18.0918C137.361 17.4993 136.613 17.2031 135.602 17.2031C134.134 17.2031 133.113 17.6543 132.539 18.5566C131.974 19.459 131.691 20.7669 131.691 22.4805V30H128.479V14.8652H130.98L131.432 16.916H131.609C131.938 16.3874 132.343 15.9544 132.826 15.6172C133.318 15.2708 133.865 15.0111 134.467 14.8379C135.077 14.6647 135.711 14.5781 136.367 14.5781ZM150.6 36.7266C148.549 36.7266 146.977 36.3574 145.883 35.6191C144.789 34.8809 144.242 33.8464 144.242 32.5156C144.242 31.5859 144.534 30.7975 145.117 30.1504C145.701 29.5124 146.535 29.0703 147.619 28.8242C147.209 28.6419 146.854 28.3594 146.553 27.9766C146.261 27.5846 146.115 27.1517 146.115 26.6777C146.115 26.1126 146.275 25.6296 146.594 25.2285C146.913 24.8275 147.391 24.4401 148.029 24.0664C147.236 23.7292 146.598 23.1823 146.115 22.4258C145.641 21.6602 145.404 20.7624 145.404 19.7324C145.404 18.6387 145.637 17.709 146.102 16.9434C146.566 16.1686 147.245 15.5807 148.139 15.1797C149.032 14.7695 150.112 14.5645 151.379 14.5645C151.652 14.5645 151.949 14.5827 152.268 14.6191C152.596 14.6465 152.896 14.6829 153.17 14.7285C153.452 14.765 153.667 14.806 153.812 14.8516H159.049V16.6426L156.479 17.1211C156.725 17.4674 156.921 17.8639 157.066 18.3105C157.212 18.748 157.285 19.2266 157.285 19.7461C157.285 21.3138 156.743 22.5488 155.658 23.4512C154.583 24.3444 153.097 24.791 151.201 24.791C150.745 24.7728 150.303 24.7363 149.875 24.6816C149.547 24.8822 149.296 25.1055 149.123 25.3516C148.95 25.5885 148.863 25.8574 148.863 26.1582C148.863 26.4043 148.95 26.6048 149.123 26.7598C149.296 26.9056 149.551 27.015 149.889 27.0879C150.235 27.1608 150.654 27.1973 151.146 27.1973H153.758C155.417 27.1973 156.684 27.5482 157.559 28.25C158.434 28.9518 158.871 29.9818 158.871 31.3398C158.871 33.0625 158.16 34.3887 156.738 35.3184C155.316 36.2572 153.27 36.7266 150.6 36.7266ZM150.723 34.4707C151.844 34.4707 152.787 34.3613 153.553 34.1426C154.318 33.9238 154.897 33.6094 155.289 33.1992C155.681 32.7982 155.877 32.3197 155.877 31.7637C155.877 31.2715 155.754 30.8932 155.508 30.6289C155.262 30.3646 154.893 30.1823 154.4 30.082C153.908 29.9818 153.298 29.9316 152.568 29.9316H150.189C149.597 29.9316 149.073 30.0228 148.617 30.2051C148.161 30.3965 147.806 30.6699 147.551 31.0254C147.305 31.3809 147.182 31.8092 147.182 32.3105C147.182 33.0033 147.487 33.5365 148.098 33.9102C148.717 34.2839 149.592 34.4707 150.723 34.4707ZM151.352 22.6855C152.29 22.6855 152.988 22.4303 153.443 21.9199C153.899 21.4004 154.127 20.6712 154.127 19.7324C154.127 18.7116 153.89 17.946 153.416 17.4355C152.951 16.9251 152.258 16.6699 151.338 16.6699C150.436 16.6699 149.747 16.9297 149.273 17.4492C148.809 17.9688 148.576 18.7389 148.576 19.7598C148.576 20.6803 148.809 21.4004 149.273 21.9199C149.747 22.4303 150.44 22.6855 151.352 22.6855ZM176.344 30H173.049V12.8008H167.197V10.0117H182.182V12.8008H176.344V30ZM192.586 14.5781C192.841 14.5781 193.119 14.5918 193.42 14.6191C193.721 14.6465 193.98 14.6829 194.199 14.7285L193.898 17.7363C193.707 17.6816 193.47 17.6406 193.188 17.6133C192.914 17.5859 192.668 17.5723 192.449 17.5723C191.875 17.5723 191.328 17.668 190.809 17.8594C190.289 18.0417 189.829 18.3242 189.428 18.707C189.027 19.0807 188.712 19.5501 188.484 20.1152C188.257 20.6803 188.143 21.3366 188.143 22.084V30H184.916V14.8652H187.432L187.869 17.5312H188.02C188.32 16.9935 188.694 16.5013 189.141 16.0547C189.587 15.6081 190.098 15.2526 190.672 14.9883C191.255 14.7148 191.893 14.5781 192.586 14.5781ZM200.215 14.8652V30H197.002V14.8652H200.215ZM198.629 9.06836C199.121 9.06836 199.545 9.20052 199.9 9.46484C200.265 9.72917 200.447 10.1849 200.447 10.832C200.447 11.4701 200.265 11.9258 199.9 12.1992C199.545 12.4635 199.121 12.5957 198.629 12.5957C198.118 12.5957 197.686 12.4635 197.33 12.1992C196.984 11.9258 196.811 11.4701 196.811 10.832C196.811 10.1849 196.984 9.72917 197.33 9.46484C197.686 9.20052 198.118 9.06836 198.629 9.06836ZM212.588 14.5781C214.383 14.5781 215.824 15.2344 216.908 16.5469C218.002 17.8594 218.549 19.8099 218.549 22.3984C218.549 24.112 218.294 25.5566 217.783 26.7324C217.282 27.8991 216.576 28.7832 215.664 29.3848C214.762 29.9772 213.709 30.2734 212.506 30.2734C211.74 30.2734 211.075 30.1732 210.51 29.9727C209.945 29.7721 209.462 29.5124 209.061 29.1934C208.66 28.8652 208.322 28.5098 208.049 28.127H207.857C207.903 28.4915 207.944 28.8971 207.98 29.3438C208.026 29.7812 208.049 30.1823 208.049 30.5469V36.7129H204.822V14.8652H207.447L207.898 16.957H208.049C208.331 16.5286 208.673 16.1322 209.074 15.7676C209.484 15.403 209.977 15.1159 210.551 14.9062C211.134 14.6875 211.813 14.5781 212.588 14.5781ZM211.727 17.2031C210.842 17.2031 210.132 17.3809 209.594 17.7363C209.065 18.0827 208.678 18.6068 208.432 19.3086C208.195 20.0104 208.067 20.89 208.049 21.9473V22.3984C208.049 23.5195 208.163 24.472 208.391 25.2559C208.628 26.0306 209.015 26.623 209.553 27.0332C210.1 27.4342 210.838 27.6348 211.768 27.6348C212.551 27.6348 213.199 27.4206 213.709 26.9922C214.229 26.5638 214.616 25.9531 214.871 25.1602C215.126 24.3672 215.254 23.4329 215.254 22.3574C215.254 20.7259 214.962 19.459 214.379 18.5566C213.805 17.6543 212.921 17.2031 211.727 17.2031ZM232.439 25.6797C232.439 26.6732 232.198 27.5117 231.715 28.1953C231.232 28.8789 230.525 29.3984 229.596 29.7539C228.675 30.1003 227.545 30.2734 226.205 30.2734C225.148 30.2734 224.236 30.196 223.471 30.041C222.714 29.8952 221.999 29.6673 221.324 29.3574V26.582C222.044 26.9193 222.851 27.2109 223.744 27.457C224.646 27.7031 225.499 27.8262 226.301 27.8262C227.358 27.8262 228.119 27.6621 228.584 27.334C229.049 26.9967 229.281 26.5501 229.281 25.9941C229.281 25.666 229.186 25.3743 228.994 25.1191C228.812 24.8548 228.465 24.5859 227.955 24.3125C227.454 24.0299 226.715 23.6927 225.74 23.3008C224.783 22.918 223.977 22.5352 223.32 22.1523C222.664 21.7695 222.167 21.3092 221.83 20.7715C221.493 20.2246 221.324 19.5273 221.324 18.6797C221.324 17.3398 221.853 16.3236 222.91 15.6309C223.977 14.929 225.385 14.5781 227.135 14.5781C228.064 14.5781 228.939 14.6738 229.76 14.8652C230.589 15.0475 231.4 15.3164 232.193 15.6719L231.182 18.0918C230.498 17.791 229.81 17.5449 229.117 17.3535C228.434 17.153 227.736 17.0527 227.025 17.0527C226.196 17.0527 225.562 17.1803 225.125 17.4355C224.697 17.6908 224.482 18.0553 224.482 18.5293C224.482 18.8848 224.587 19.1855 224.797 19.4316C225.007 19.6777 225.367 19.9238 225.877 20.1699C226.396 20.416 227.117 20.7214 228.037 21.0859C228.939 21.4323 229.719 21.7969 230.375 22.1797C231.04 22.5534 231.551 23.0137 231.906 23.5605C232.262 24.1074 232.439 24.8138 232.439 25.6797Z" fill="black"/>
<rect y="52" width="605" height="214" rx="25" fill="#D7CBAD"/>
<path d="M49.2118 129H45.9169V111.801H40.0653V109.012H55.0497V111.801H49.2118V129ZM71.1825 121.398C71.1825 122.656 71.0184 123.773 70.6903 124.748C70.3622 125.723 69.8837 126.548 69.2548 127.223C68.6259 127.888 67.8693 128.398 66.9852 128.754C66.1011 129.1 65.1031 129.273 63.9911 129.273C62.952 129.273 61.9996 129.1 61.1337 128.754C60.2678 128.398 59.5158 127.888 58.8778 127.223C58.2489 126.548 57.7613 125.723 57.4149 124.748C57.0686 123.773 56.8954 122.656 56.8954 121.398C56.8954 119.73 57.1825 118.318 57.7567 117.16C58.34 115.993 59.1695 115.105 60.245 114.494C61.3205 113.883 62.6011 113.578 64.0868 113.578C65.4813 113.578 66.7118 113.883 67.7782 114.494C68.8446 115.105 69.6786 115.993 70.2802 117.16C70.8817 118.327 71.1825 119.74 71.1825 121.398ZM60.204 121.398C60.204 122.501 60.3361 123.445 60.6005 124.229C60.8739 125.012 61.2932 125.614 61.8583 126.033C62.4234 126.443 63.1525 126.648 64.0458 126.648C64.939 126.648 65.6682 126.443 66.2333 126.033C66.7984 125.614 67.2131 125.012 67.4774 124.229C67.7417 123.445 67.8739 122.501 67.8739 121.398C67.8739 120.296 67.7417 119.361 67.4774 118.596C67.2131 117.821 66.7984 117.233 66.2333 116.832C65.6682 116.422 64.9344 116.217 64.0321 116.217C62.7014 116.217 61.7307 116.663 61.12 117.557C60.5093 118.45 60.204 119.73 60.204 121.398ZM82.5438 113.578C82.799 113.578 83.077 113.592 83.3778 113.619C83.6786 113.646 83.9384 113.683 84.1571 113.729L83.8563 116.736C83.6649 116.682 83.4279 116.641 83.1454 116.613C82.8719 116.586 82.6259 116.572 82.4071 116.572C81.8329 116.572 81.286 116.668 80.7665 116.859C80.2469 117.042 79.7867 117.324 79.3856 117.707C78.9846 118.081 78.6701 118.55 78.4423 119.115C78.2144 119.68 78.1005 120.337 78.1005 121.084V129H74.8739V113.865H77.3895L77.827 116.531H77.9774C78.2782 115.993 78.6519 115.501 79.0985 115.055C79.5451 114.608 80.0555 114.253 80.6298 113.988C81.2131 113.715 81.8511 113.578 82.5438 113.578ZM100.358 121.398C100.358 122.656 100.194 123.773 99.8661 124.748C99.538 125.723 99.0594 126.548 98.4305 127.223C97.8016 127.888 97.0451 128.398 96.161 128.754C95.2769 129.1 94.2788 129.273 93.1669 129.273C92.1278 129.273 91.1753 129.1 90.3094 128.754C89.4436 128.398 88.6916 127.888 88.0536 127.223C87.4247 126.548 86.9371 125.723 86.5907 124.748C86.2443 123.773 86.0712 122.656 86.0712 121.398C86.0712 119.73 86.3583 118.318 86.9325 117.16C87.5158 115.993 88.3453 115.105 89.4208 114.494C90.4963 113.883 91.7769 113.578 93.2626 113.578C94.6571 113.578 95.8876 113.883 96.954 114.494C98.0204 115.105 98.8544 115.993 99.4559 117.16C100.057 118.327 100.358 119.74 100.358 121.398ZM89.3798 121.398C89.3798 122.501 89.5119 123.445 89.7762 124.229C90.0497 125.012 90.469 125.614 91.0341 126.033C91.5992 126.443 92.3283 126.648 93.2216 126.648C94.1148 126.648 94.844 126.443 95.4091 126.033C95.9742 125.614 96.3889 125.012 96.6532 124.229C96.9175 123.445 97.0497 122.501 97.0497 121.398C97.0497 120.296 96.9175 119.361 96.6532 118.596C96.3889 117.821 95.9742 117.233 95.4091 116.832C94.844 116.422 94.1102 116.217 93.2079 116.217C91.8772 116.217 90.9065 116.663 90.2958 117.557C89.6851 118.45 89.3798 119.73 89.3798 121.398ZM111.938 113.578C113.643 113.578 114.969 114.02 115.917 114.904C116.874 115.779 117.352 117.188 117.352 119.129V129H114.14V119.73C114.14 118.555 113.898 117.675 113.415 117.092C112.932 116.499 112.184 116.203 111.173 116.203C109.705 116.203 108.684 116.654 108.11 117.557C107.545 118.459 107.263 119.767 107.263 121.48V129H104.05V113.865H106.552L107.003 115.916H107.181C107.509 115.387 107.914 114.954 108.397 114.617C108.89 114.271 109.436 114.011 110.038 113.838C110.649 113.665 111.282 113.578 111.938 113.578ZM127.483 126.676C127.903 126.676 128.317 126.639 128.727 126.566C129.138 126.484 129.511 126.389 129.849 126.279V128.713C129.493 128.868 129.033 129 128.468 129.109C127.903 129.219 127.315 129.273 126.704 129.273C125.847 129.273 125.077 129.132 124.393 128.85C123.71 128.558 123.168 128.061 122.766 127.359C122.365 126.658 122.165 125.687 122.165 124.447V116.312H120.1V114.877L122.315 113.742L123.368 110.502H125.391V113.865H129.725V116.312H125.391V124.406C125.391 125.172 125.583 125.742 125.966 126.115C126.349 126.489 126.854 126.676 127.483 126.676ZM146.323 121.398C146.323 122.656 146.159 123.773 145.831 124.748C145.503 125.723 145.024 126.548 144.395 127.223C143.766 127.888 143.01 128.398 142.126 128.754C141.242 129.1 140.244 129.273 139.132 129.273C138.093 129.273 137.14 129.1 136.274 128.754C135.408 128.398 134.656 127.888 134.018 127.223C133.39 126.548 132.902 125.723 132.556 124.748C132.209 123.773 132.036 122.656 132.036 121.398C132.036 119.73 132.323 118.318 132.897 117.16C133.481 115.993 134.31 115.105 135.386 114.494C136.461 113.883 137.742 113.578 139.227 113.578C140.622 113.578 141.852 113.883 142.919 114.494C143.985 115.105 144.819 115.993 145.421 117.16C146.022 118.327 146.323 119.74 146.323 121.398ZM135.345 121.398C135.345 122.501 135.477 123.445 135.741 124.229C136.015 125.012 136.434 125.614 136.999 126.033C137.564 126.443 138.293 126.648 139.186 126.648C140.08 126.648 140.809 126.443 141.374 126.033C141.939 125.614 142.354 125.012 142.618 124.229C142.882 123.445 143.015 122.501 143.015 121.398C143.015 120.296 142.882 119.361 142.618 118.596C142.354 117.821 141.939 117.233 141.374 116.832C140.809 116.422 140.075 116.217 139.173 116.217C137.842 116.217 136.871 116.663 136.261 117.557C135.65 118.45 135.345 119.73 135.345 121.398Z" fill="#2A2A2A"/>
<path fill-rule="evenodd" clip-rule="evenodd" d="M206.444 105.467L213.041 112.061C213.246 112.266 213.359 112.528 213.382 112.796V113.124C213.359 113.392 213.246 113.655 213.041 113.86L206.444 120.453C205.982 120.916 205.234 120.916 204.773 120.453C204.312 119.992 204.312 119.243 204.773 118.78L209.474 114.08H189.867C189.249 114.08 188.747 113.579 188.747 112.96C188.747 112.342 189.249 111.84 189.867 111.84H209.474L204.773 107.14C204.312 106.678 204.312 105.929 204.773 105.467C205.234 105.005 205.982 105.005 206.444 105.467Z" fill="black"/>
<path fill-rule="evenodd" clip-rule="evenodd" d="M184.486 131.653L177.889 125.06C177.684 124.855 177.57 124.592 177.547 124.324V123.996C177.57 123.728 177.684 123.466 177.889 123.261L184.486 116.667C184.947 116.205 185.695 116.205 186.157 116.667C186.618 117.129 186.618 117.878 186.157 118.34L181.456 123.04H201.062C201.681 123.04 202.182 123.542 202.182 124.16C202.182 124.779 201.681 125.28 201.062 125.28H181.456L186.157 129.98C186.618 130.442 186.618 131.192 186.157 131.653C185.695 132.116 184.947 132.116 184.486 131.653Z" fill="black"/>
<path d="M263.868 129H259.835L250.046 113.045H249.923C249.959 113.583 249.991 114.152 250.018 114.754C250.055 115.355 250.082 115.975 250.1 116.613C250.128 117.251 250.151 117.898 250.169 118.555V129H247.188V109.012H251.194L260.97 124.857H261.065C261.047 124.393 261.024 123.859 260.997 123.258C260.97 122.656 260.942 122.036 260.915 121.398C260.897 120.751 260.883 120.127 260.874 119.525V109.012H263.868V129ZM274.778 118.131L279.522 109.012H283.063L276.419 121.234V129H273.151V121.357L266.493 109.012H270.061L274.778 118.131ZM294.206 111.514C293.249 111.514 292.392 111.687 291.636 112.033C290.888 112.38 290.255 112.881 289.735 113.537C289.216 114.184 288.819 114.973 288.546 115.902C288.272 116.823 288.136 117.862 288.136 119.02C288.136 120.569 288.354 121.904 288.792 123.025C289.229 124.137 289.895 124.994 290.788 125.596C291.681 126.188 292.811 126.484 294.179 126.484C295.026 126.484 295.851 126.402 296.653 126.238C297.455 126.074 298.285 125.851 299.141 125.568V128.357C298.33 128.676 297.51 128.909 296.681 129.055C295.851 129.201 294.894 129.273 293.809 129.273C291.768 129.273 290.072 128.85 288.724 128.002C287.384 127.154 286.381 125.96 285.716 124.42C285.059 122.88 284.731 121.075 284.731 119.006C284.731 117.493 284.941 116.107 285.36 114.85C285.78 113.592 286.39 112.507 287.192 111.596C287.994 110.675 288.983 109.969 290.159 109.477C291.344 108.975 292.697 108.725 294.22 108.725C295.222 108.725 296.207 108.839 297.173 109.066C298.148 109.285 299.05 109.6 299.88 110.01L298.731 112.717C298.039 112.389 297.314 112.106 296.557 111.869C295.801 111.632 295.017 111.514 294.206 111.514Z" fill="#2A2A2A"/>
<rect width="194.976" height="46" transform="translate(371.793 95)" fill="black"/>
<path d="M419.711 112.578C421.185 112.578 422.26 112.88 422.938 113.484C423.615 114.089 423.953 114.935 423.953 116.023C423.953 116.518 423.875 116.99 423.719 117.438C423.568 117.88 423.318 118.273 422.969 118.617C422.62 118.956 422.159 119.224 421.586 119.422C421.018 119.62 420.318 119.719 419.484 119.719H418.266V124H416.391V112.578H419.711ZM419.586 114.133H418.266V118.156H419.289C419.878 118.156 420.378 118.089 420.789 117.953C421.201 117.812 421.513 117.591 421.727 117.289C421.94 116.987 422.047 116.589 422.047 116.094C422.047 115.432 421.846 114.94 421.445 114.617C421.049 114.294 420.43 114.133 419.586 114.133ZM427.891 124H426.047V111.844H427.891V124ZM433.906 115.188C435 115.188 435.826 115.43 436.383 115.914C436.945 116.398 437.227 117.154 437.227 118.18V124H435.922L435.57 122.773H435.508C435.263 123.086 435.01 123.344 434.75 123.547C434.49 123.75 434.188 123.901 433.844 124C433.505 124.104 433.091 124.156 432.602 124.156C432.086 124.156 431.625 124.062 431.219 123.875C430.812 123.682 430.492 123.391 430.258 123C430.023 122.609 429.906 122.115 429.906 121.516C429.906 120.625 430.237 119.956 430.898 119.508C431.565 119.06 432.57 118.812 433.914 118.766L435.414 118.711V118.258C435.414 117.659 435.273 117.232 434.992 116.977C434.716 116.721 434.326 116.594 433.82 116.594C433.388 116.594 432.969 116.656 432.562 116.781C432.156 116.906 431.76 117.06 431.375 117.242L430.781 115.945C431.203 115.721 431.682 115.539 432.219 115.398C432.76 115.258 433.323 115.188 433.906 115.188ZM435.406 119.867L434.289 119.906C433.372 119.938 432.729 120.094 432.359 120.375C431.99 120.656 431.805 121.042 431.805 121.531C431.805 121.958 431.932 122.271 432.188 122.469C432.443 122.661 432.779 122.758 433.195 122.758C433.831 122.758 434.357 122.578 434.773 122.219C435.195 121.854 435.406 121.32 435.406 120.617V119.867ZM444.305 115.188C445.279 115.188 446.036 115.44 446.578 115.945C447.125 116.445 447.398 117.25 447.398 118.359V124H445.562V118.703C445.562 118.031 445.424 117.529 445.148 117.195C444.872 116.857 444.445 116.688 443.867 116.688C443.029 116.688 442.445 116.945 442.117 117.461C441.794 117.977 441.633 118.724 441.633 119.703V124H439.797V115.352H441.227L441.484 116.523H441.586C441.773 116.221 442.005 115.974 442.281 115.781C442.562 115.583 442.875 115.435 443.219 115.336C443.568 115.237 443.93 115.188 444.305 115.188ZM457.547 117.789L460.258 112.578H462.281L458.484 119.562V124H456.617V119.633L452.812 112.578H454.852L457.547 117.789ZM471.25 119.656C471.25 120.375 471.156 121.013 470.969 121.57C470.781 122.128 470.508 122.599 470.148 122.984C469.789 123.365 469.357 123.656 468.852 123.859C468.346 124.057 467.776 124.156 467.141 124.156C466.547 124.156 466.003 124.057 465.508 123.859C465.013 123.656 464.583 123.365 464.219 122.984C463.859 122.599 463.581 122.128 463.383 121.57C463.185 121.013 463.086 120.375 463.086 119.656C463.086 118.703 463.25 117.896 463.578 117.234C463.911 116.568 464.385 116.06 465 115.711C465.615 115.362 466.346 115.188 467.195 115.188C467.992 115.188 468.695 115.362 469.305 115.711C469.914 116.06 470.391 116.568 470.734 117.234C471.078 117.901 471.25 118.708 471.25 119.656ZM464.977 119.656C464.977 120.286 465.052 120.826 465.203 121.273C465.359 121.721 465.599 122.065 465.922 122.305C466.245 122.539 466.661 122.656 467.172 122.656C467.682 122.656 468.099 122.539 468.422 122.305C468.745 122.065 468.982 121.721 469.133 121.273C469.284 120.826 469.359 120.286 469.359 119.656C469.359 119.026 469.284 118.492 469.133 118.055C468.982 117.612 468.745 117.276 468.422 117.047C468.099 116.812 467.68 116.695 467.164 116.695C466.404 116.695 465.849 116.951 465.5 117.461C465.151 117.971 464.977 118.703 464.977 119.656ZM480.898 115.352V124H479.453L479.203 122.836H479.102C478.919 123.133 478.688 123.38 478.406 123.578C478.125 123.771 477.812 123.914 477.469 124.008C477.125 124.107 476.763 124.156 476.383 124.156C475.732 124.156 475.174 124.047 474.711 123.828C474.253 123.604 473.901 123.26 473.656 122.797C473.411 122.333 473.289 121.734 473.289 121V115.352H475.133V120.656C475.133 121.328 475.268 121.831 475.539 122.164C475.815 122.497 476.242 122.664 476.82 122.664C477.378 122.664 477.82 122.549 478.148 122.32C478.477 122.091 478.708 121.753 478.844 121.305C478.984 120.857 479.055 120.307 479.055 119.656V115.352H480.898ZM487.914 115.188C488.06 115.188 488.219 115.195 488.391 115.211C488.562 115.227 488.711 115.247 488.836 115.273L488.664 116.992C488.555 116.961 488.419 116.938 488.258 116.922C488.102 116.906 487.961 116.898 487.836 116.898C487.508 116.898 487.195 116.953 486.898 117.062C486.602 117.167 486.339 117.328 486.109 117.547C485.88 117.76 485.701 118.029 485.57 118.352C485.44 118.674 485.375 119.049 485.375 119.477V124H483.531V115.352H484.969L485.219 116.875H485.305C485.477 116.568 485.69 116.286 485.945 116.031C486.201 115.776 486.492 115.573 486.82 115.422C487.154 115.266 487.518 115.188 487.914 115.188ZM498.742 124H496.859V114.172H493.516V112.578H502.078V114.172H498.742V124ZM508.023 115.188C508.169 115.188 508.328 115.195 508.5 115.211C508.672 115.227 508.82 115.247 508.945 115.273L508.773 116.992C508.664 116.961 508.529 116.938 508.367 116.922C508.211 116.906 508.07 116.898 507.945 116.898C507.617 116.898 507.305 116.953 507.008 117.062C506.711 117.167 506.448 117.328 506.219 117.547C505.99 117.76 505.81 118.029 505.68 118.352C505.549 118.674 505.484 119.049 505.484 119.477V124H503.641V115.352H505.078L505.328 116.875H505.414C505.586 116.568 505.799 116.286 506.055 116.031C506.31 115.776 506.602 115.573 506.93 115.422C507.263 115.266 507.628 115.188 508.023 115.188ZM512.383 115.352V124H510.547V115.352H512.383ZM511.477 112.039C511.758 112.039 512 112.115 512.203 112.266C512.411 112.417 512.516 112.677 512.516 113.047C512.516 113.411 512.411 113.672 512.203 113.828C512 113.979 511.758 114.055 511.477 114.055C511.185 114.055 510.938 113.979 510.734 113.828C510.536 113.672 510.438 113.411 510.438 113.047C510.438 112.677 510.536 112.417 510.734 112.266C510.938 112.115 511.185 112.039 511.477 112.039ZM519.453 115.188C520.479 115.188 521.302 115.562 521.922 116.312C522.547 117.062 522.859 118.177 522.859 119.656C522.859 120.635 522.714 121.461 522.422 122.133C522.135 122.799 521.732 123.305 521.211 123.648C520.695 123.987 520.094 124.156 519.406 124.156C518.969 124.156 518.589 124.099 518.266 123.984C517.943 123.87 517.667 123.721 517.438 123.539C517.208 123.352 517.016 123.148 516.859 122.93H516.75C516.776 123.138 516.799 123.37 516.82 123.625C516.846 123.875 516.859 124.104 516.859 124.312V127.836H515.016V115.352H516.516L516.773 116.547H516.859C517.021 116.302 517.216 116.076 517.445 115.867C517.68 115.659 517.961 115.495 518.289 115.375C518.622 115.25 519.01 115.188 519.453 115.188ZM518.961 116.688C518.456 116.688 518.049 116.789 517.742 116.992C517.44 117.19 517.219 117.49 517.078 117.891C516.943 118.292 516.87 118.794 516.859 119.398V119.656C516.859 120.297 516.924 120.841 517.055 121.289C517.19 121.732 517.411 122.07 517.719 122.305C518.031 122.534 518.453 122.648 518.984 122.648C519.432 122.648 519.802 122.526 520.094 122.281C520.391 122.036 520.612 121.688 520.758 121.234C520.904 120.781 520.977 120.247 520.977 119.633C520.977 118.701 520.81 117.977 520.477 117.461C520.148 116.945 519.643 116.688 518.961 116.688Z" fill="white"/>
<path d="M49.2118 211H45.9169V193.801H40.0653V191.012H55.0497V193.801H49.2118V211ZM71.1825 203.398C71.1825 204.656 71.0184 205.773 70.6903 206.748C70.3622 207.723 69.8837 208.548 69.2548 209.223C68.6259 209.888 67.8693 210.398 66.9852 210.754C66.1011 211.1 65.1031 211.273 63.9911 211.273C62.952 211.273 61.9996 211.1 61.1337 210.754C60.2678 210.398 59.5158 209.888 58.8778 209.223C58.2489 208.548 57.7613 207.723 57.4149 206.748C57.0686 205.773 56.8954 204.656 56.8954 203.398C56.8954 201.73 57.1825 200.318 57.7567 199.16C58.34 197.993 59.1695 197.105 60.245 196.494C61.3205 195.883 62.6011 195.578 64.0868 195.578C65.4813 195.578 66.7118 195.883 67.7782 196.494C68.8446 197.105 69.6786 197.993 70.2802 199.16C70.8817 200.327 71.1825 201.74 71.1825 203.398ZM60.204 203.398C60.204 204.501 60.3361 205.445 60.6005 206.229C60.8739 207.012 61.2932 207.614 61.8583 208.033C62.4234 208.443 63.1525 208.648 64.0458 208.648C64.939 208.648 65.6682 208.443 66.2333 208.033C66.7984 207.614 67.2131 207.012 67.4774 206.229C67.7417 205.445 67.8739 204.501 67.8739 203.398C67.8739 202.296 67.7417 201.361 67.4774 200.596C67.2131 199.821 66.7984 199.233 66.2333 198.832C65.6682 198.422 64.9344 198.217 64.0321 198.217C62.7014 198.217 61.7307 198.663 61.12 199.557C60.5093 200.45 60.204 201.73 60.204 203.398ZM82.5438 195.578C82.799 195.578 83.077 195.592 83.3778 195.619C83.6786 195.646 83.9384 195.683 84.1571 195.729L83.8563 198.736C83.6649 198.682 83.4279 198.641 83.1454 198.613C82.8719 198.586 82.6259 198.572 82.4071 198.572C81.8329 198.572 81.286 198.668 80.7665 198.859C80.2469 199.042 79.7867 199.324 79.3856 199.707C78.9846 200.081 78.6701 200.55 78.4423 201.115C78.2144 201.68 78.1005 202.337 78.1005 203.084V211H74.8739V195.865H77.3895L77.827 198.531H77.9774C78.2782 197.993 78.6519 197.501 79.0985 197.055C79.5451 196.608 80.0555 196.253 80.6298 195.988C81.2131 195.715 81.8511 195.578 82.5438 195.578ZM100.358 203.398C100.358 204.656 100.194 205.773 99.8661 206.748C99.538 207.723 99.0594 208.548 98.4305 209.223C97.8016 209.888 97.0451 210.398 96.161 210.754C95.2769 211.1 94.2788 211.273 93.1669 211.273C92.1278 211.273 91.1753 211.1 90.3094 210.754C89.4436 210.398 88.6916 209.888 88.0536 209.223C87.4247 208.548 86.9371 207.723 86.5907 206.748C86.2443 205.773 86.0712 204.656 86.0712 203.398C86.0712 201.73 86.3583 200.318 86.9325 199.16C87.5158 197.993 88.3453 197.105 89.4208 196.494C90.4963 195.883 91.7769 195.578 93.2626 195.578C94.6571 195.578 95.8876 195.883 96.954 196.494C98.0204 197.105 98.8544 197.993 99.4559 199.16C100.057 200.327 100.358 201.74 100.358 203.398ZM89.3798 203.398C89.3798 204.501 89.5119 205.445 89.7762 206.229C90.0497 207.012 90.469 207.614 91.0341 208.033C91.5992 208.443 92.3283 208.648 93.2216 208.648C94.1148 208.648 94.844 208.443 95.4091 208.033C95.9742 207.614 96.3889 207.012 96.6532 206.229C96.9175 205.445 97.0497 204.501 97.0497 203.398C97.0497 202.296 96.9175 201.361 96.6532 200.596C96.3889 199.821 95.9742 199.233 95.4091 198.832C94.844 198.422 94.1102 198.217 93.2079 198.217C91.8772 198.217 90.9065 198.663 90.2958 199.557C89.6851 200.45 89.3798 201.73 89.3798 203.398ZM111.938 195.578C113.643 195.578 114.969 196.02 115.917 196.904C116.874 197.779 117.352 199.188 117.352 201.129V211H114.14V201.73C114.14 200.555 113.898 199.675 113.415 199.092C112.932 198.499 112.184 198.203 111.173 198.203C109.705 198.203 108.684 198.654 108.11 199.557C107.545 200.459 107.263 201.767 107.263 203.48V211H104.05V195.865H106.552L107.003 197.916H107.181C107.509 197.387 107.914 196.954 108.397 196.617C108.89 196.271 109.436 196.011 110.038 195.838C110.649 195.665 111.282 195.578 111.938 195.578ZM127.483 208.676C127.903 208.676 128.317 208.639 128.727 208.566C129.138 208.484 129.511 208.389 129.849 208.279V210.713C129.493 210.868 129.033 211 128.468 211.109C127.903 211.219 127.315 211.273 126.704 211.273C125.847 211.273 125.077 211.132 124.393 210.85C123.71 210.558 123.168 210.061 122.766 209.359C122.365 208.658 122.165 207.687 122.165 206.447V198.312H120.1V196.877L122.315 195.742L123.368 192.502H125.391V195.865H129.725V198.312H125.391V206.406C125.391 207.172 125.583 207.742 125.966 208.115C126.349 208.489 126.854 208.676 127.483 208.676ZM146.323 203.398C146.323 204.656 146.159 205.773 145.831 206.748C145.503 207.723 145.024 208.548 144.395 209.223C143.766 209.888 143.01 210.398 142.126 210.754C141.242 211.1 140.244 211.273 139.132 211.273C138.093 211.273 137.14 211.1 136.274 210.754C135.408 210.398 134.656 209.888 134.018 209.223C133.39 208.548 132.902 207.723 132.556 206.748C132.209 205.773 132.036 204.656 132.036 203.398C132.036 201.73 132.323 200.318 132.897 199.16C133.481 197.993 134.31 197.105 135.386 196.494C136.461 195.883 137.742 195.578 139.227 195.578C140.622 195.578 141.852 195.883 142.919 196.494C143.985 197.105 144.819 197.993 145.421 199.16C146.022 200.327 146.323 201.74 146.323 203.398ZM135.345 203.398C135.345 204.501 135.477 205.445 135.741 206.229C136.015 207.012 136.434 207.614 136.999 208.033C137.564 208.443 138.293 208.648 139.186 208.648C140.08 208.648 140.809 208.443 141.374 208.033C141.939 207.614 142.354 207.012 142.618 206.229C142.882 205.445 143.015 204.501 143.015 203.398C143.015 202.296 142.882 201.361 142.618 200.596C142.354 199.821 141.939 199.233 141.374 198.832C140.809 198.422 140.075 198.217 139.173 198.217C137.842 198.217 136.871 198.663 136.261 199.557C135.65 200.45 135.345 201.73 135.345 203.398Z" fill="#2A2A2A"/>
<path fill-rule="evenodd" clip-rule="evenodd" d="M206.444 187.467L213.041 194.061C213.246 194.266 213.359 194.528 213.382 194.796V195.124C213.359 195.392 213.246 195.655 213.041 195.86L206.444 202.453C205.982 202.916 205.234 202.916 204.773 202.453C204.312 201.992 204.312 201.243 204.773 200.78L209.474 196.08H189.867C189.249 196.08 188.747 195.579 188.747 194.96C188.747 194.342 189.249 193.84 189.867 193.84H209.474L204.773 189.14C204.312 188.678 204.312 187.929 204.773 187.467C205.234 187.005 205.982 187.005 206.444 187.467Z" fill="black"/>
<path fill-rule="evenodd" clip-rule="evenodd" d="M184.486 213.653L177.889 207.06C177.684 206.855 177.57 206.592 177.547 206.324V205.996C177.57 205.728 177.684 205.466 177.889 205.261L184.486 198.667C184.947 198.205 185.695 198.205 186.157 198.667C186.618 199.129 186.618 199.878 186.157 200.34L181.456 205.04H201.062C201.681 205.04 202.182 205.542 202.182 206.16C202.182 206.779 201.681 207.28 201.062 207.28H181.456L186.157 211.98C186.618 212.442 186.618 213.192 186.157 213.653C185.695 214.116 184.947 214.116 184.486 213.653Z" fill="black"/>
<path d="M247.233 191.012H253.181C255.76 191.012 257.706 191.385 259.018 192.133C260.331 192.88 260.987 194.17 260.987 196.002C260.987 196.768 260.85 197.46 260.577 198.08C260.313 198.691 259.925 199.197 259.415 199.598C258.905 199.99 258.276 200.254 257.528 200.391V200.527C258.303 200.664 258.991 200.906 259.593 201.252C260.203 201.598 260.682 202.095 261.028 202.742C261.384 203.389 261.561 204.228 261.561 205.258C261.561 206.479 261.27 207.518 260.686 208.375C260.112 209.232 259.287 209.883 258.212 210.33C257.145 210.777 255.878 211 254.411 211H247.233V191.012ZM250.515 199.256H253.659C255.145 199.256 256.175 199.014 256.749 198.531C257.323 198.048 257.61 197.342 257.61 196.412C257.61 195.464 257.268 194.781 256.585 194.361C255.91 193.942 254.835 193.732 253.358 193.732H250.515V199.256ZM250.515 201.908V208.252H253.974C255.505 208.252 256.58 207.956 257.2 207.363C257.82 206.771 258.13 205.969 258.13 204.957C258.13 204.337 257.988 203.799 257.706 203.344C257.432 202.888 256.981 202.537 256.352 202.291C255.724 202.036 254.876 201.908 253.809 201.908H250.515ZM278.761 203.398C278.761 204.656 278.597 205.773 278.268 206.748C277.94 207.723 277.462 208.548 276.833 209.223C276.204 209.888 275.447 210.398 274.563 210.754C273.679 211.1 272.681 211.273 271.569 211.273C270.53 211.273 269.578 211.1 268.712 210.754C267.846 210.398 267.094 209.888 266.456 209.223C265.827 208.548 265.339 207.723 264.993 206.748C264.647 205.773 264.474 204.656 264.474 203.398C264.474 201.73 264.761 200.318 265.335 199.16C265.918 197.993 266.748 197.105 267.823 196.494C268.899 195.883 270.179 195.578 271.665 195.578C273.059 195.578 274.29 195.883 275.356 196.494C276.423 197.105 277.257 197.993 277.858 199.16C278.46 200.327 278.761 201.74 278.761 203.398ZM267.782 203.398C267.782 204.501 267.914 205.445 268.179 206.229C268.452 207.012 268.871 207.614 269.436 208.033C270.002 208.443 270.731 208.648 271.624 208.648C272.517 208.648 273.246 208.443 273.811 208.033C274.377 207.614 274.791 207.012 275.056 206.229C275.32 205.445 275.452 204.501 275.452 203.398C275.452 202.296 275.32 201.361 275.056 200.596C274.791 199.821 274.377 199.233 273.811 198.832C273.246 198.422 272.513 198.217 271.61 198.217C270.28 198.217 269.309 198.663 268.698 199.557C268.087 200.45 267.782 201.73 267.782 203.398ZM292.624 206.68C292.624 207.673 292.382 208.512 291.899 209.195C291.416 209.879 290.71 210.398 289.78 210.754C288.86 211.1 287.729 211.273 286.39 211.273C285.332 211.273 284.421 211.196 283.655 211.041C282.899 210.895 282.183 210.667 281.509 210.357V207.582C282.229 207.919 283.035 208.211 283.929 208.457C284.831 208.703 285.683 208.826 286.485 208.826C287.543 208.826 288.304 208.662 288.768 208.334C289.233 207.997 289.466 207.55 289.466 206.994C289.466 206.666 289.37 206.374 289.179 206.119C288.996 205.855 288.65 205.586 288.14 205.312C287.638 205.03 286.9 204.693 285.925 204.301C284.968 203.918 284.161 203.535 283.505 203.152C282.849 202.77 282.352 202.309 282.015 201.771C281.677 201.225 281.509 200.527 281.509 199.68C281.509 198.34 282.037 197.324 283.095 196.631C284.161 195.929 285.569 195.578 287.319 195.578C288.249 195.578 289.124 195.674 289.944 195.865C290.774 196.048 291.585 196.316 292.378 196.672L291.366 199.092C290.682 198.791 289.994 198.545 289.302 198.354C288.618 198.153 287.921 198.053 287.21 198.053C286.38 198.053 285.747 198.18 285.309 198.436C284.881 198.691 284.667 199.055 284.667 199.529C284.667 199.885 284.772 200.186 284.981 200.432C285.191 200.678 285.551 200.924 286.061 201.17C286.581 201.416 287.301 201.721 288.222 202.086C289.124 202.432 289.903 202.797 290.559 203.18C291.225 203.553 291.735 204.014 292.091 204.561C292.446 205.107 292.624 205.814 292.624 206.68ZM301.729 208.676C302.149 208.676 302.563 208.639 302.974 208.566C303.384 208.484 303.757 208.389 304.095 208.279V210.713C303.739 210.868 303.279 211 302.714 211.109C302.149 211.219 301.561 211.273 300.95 211.273C300.093 211.273 299.323 211.132 298.64 210.85C297.956 210.558 297.414 210.061 297.013 209.359C296.612 208.658 296.411 207.687 296.411 206.447V198.312H294.347V196.877L296.561 195.742L297.614 192.502H299.638V195.865H303.972V198.312H299.638V206.406C299.638 207.172 299.829 207.742 300.212 208.115C300.595 208.489 301.1 208.676 301.729 208.676ZM320.569 203.398C320.569 204.656 320.405 205.773 320.077 206.748C319.749 207.723 319.27 208.548 318.641 209.223C318.013 209.888 317.256 210.398 316.372 210.754C315.488 211.1 314.49 211.273 313.378 211.273C312.339 211.273 311.386 211.1 310.52 210.754C309.655 210.398 308.903 209.888 308.265 209.223C307.636 208.548 307.148 207.723 306.802 206.748C306.455 205.773 306.282 204.656 306.282 203.398C306.282 201.73 306.569 200.318 307.143 199.16C307.727 197.993 308.556 197.105 309.632 196.494C310.707 195.883 311.988 195.578 313.474 195.578C314.868 195.578 316.099 195.883 317.165 196.494C318.231 197.105 319.065 197.993 319.667 199.16C320.268 200.327 320.569 201.74 320.569 203.398ZM309.591 203.398C309.591 204.501 309.723 205.445 309.987 206.229C310.261 207.012 310.68 207.614 311.245 208.033C311.81 208.443 312.539 208.648 313.432 208.648C314.326 208.648 315.055 208.443 315.62 208.033C316.185 207.614 316.6 207.012 316.864 206.229C317.128 205.445 317.261 204.501 317.261 203.398C317.261 202.296 317.128 201.361 316.864 200.596C316.6 199.821 316.185 199.233 315.62 198.832C315.055 198.422 314.321 198.217 313.419 198.217C312.088 198.217 311.117 198.663 310.507 199.557C309.896 200.45 309.591 201.73 309.591 203.398ZM332.149 195.578C333.854 195.578 335.18 196.02 336.128 196.904C337.085 197.779 337.563 199.188 337.563 201.129V211H334.35V201.73C334.35 200.555 334.109 199.675 333.626 199.092C333.143 198.499 332.395 198.203 331.384 198.203C329.916 198.203 328.895 198.654 328.321 199.557C327.756 200.459 327.474 201.767 327.474 203.48V211H324.261V195.865H326.763L327.214 197.916H327.391C327.72 197.387 328.125 196.954 328.608 196.617C329.1 196.271 329.647 196.011 330.249 195.838C330.86 195.665 331.493 195.578 332.149 195.578Z" fill="#2A2A2A"/>
<rect width="194.976" height="46" transform="translate(371.793 177)" fill="black"/>
<path d="M419.711 194.578C421.185 194.578 422.26 194.88 422.938 195.484C423.615 196.089 423.953 196.935 423.953 198.023C423.953 198.518 423.875 198.99 423.719 199.438C423.568 199.88 423.318 200.273 422.969 200.617C422.62 200.956 422.159 201.224 421.586 201.422C421.018 201.62 420.318 201.719 419.484 201.719H418.266V206H416.391V194.578H419.711ZM419.586 196.133H418.266V200.156H419.289C419.878 200.156 420.378 200.089 420.789 199.953C421.201 199.812 421.513 199.591 421.727 199.289C421.94 198.987 422.047 198.589 422.047 198.094C422.047 197.432 421.846 196.94 421.445 196.617C421.049 196.294 420.43 196.133 419.586 196.133ZM427.891 206H426.047V193.844H427.891V206ZM433.906 197.188C435 197.188 435.826 197.43 436.383 197.914C436.945 198.398 437.227 199.154 437.227 200.18V206H435.922L435.57 204.773H435.508C435.263 205.086 435.01 205.344 434.75 205.547C434.49 205.75 434.188 205.901 433.844 206C433.505 206.104 433.091 206.156 432.602 206.156C432.086 206.156 431.625 206.062 431.219 205.875C430.812 205.682 430.492 205.391 430.258 205C430.023 204.609 429.906 204.115 429.906 203.516C429.906 202.625 430.237 201.956 430.898 201.508C431.565 201.06 432.57 200.812 433.914 200.766L435.414 200.711V200.258C435.414 199.659 435.273 199.232 434.992 198.977C434.716 198.721 434.326 198.594 433.82 198.594C433.388 198.594 432.969 198.656 432.562 198.781C432.156 198.906 431.76 199.06 431.375 199.242L430.781 197.945C431.203 197.721 431.682 197.539 432.219 197.398C432.76 197.258 433.323 197.188 433.906 197.188ZM435.406 201.867L434.289 201.906C433.372 201.938 432.729 202.094 432.359 202.375C431.99 202.656 431.805 203.042 431.805 203.531C431.805 203.958 431.932 204.271 432.188 204.469C432.443 204.661 432.779 204.758 433.195 204.758C433.831 204.758 434.357 204.578 434.773 204.219C435.195 203.854 435.406 203.32 435.406 202.617V201.867ZM444.305 197.188C445.279 197.188 446.036 197.44 446.578 197.945C447.125 198.445 447.398 199.25 447.398 200.359V206H445.562V200.703C445.562 200.031 445.424 199.529 445.148 199.195C444.872 198.857 444.445 198.688 443.867 198.688C443.029 198.688 442.445 198.945 442.117 199.461C441.794 199.977 441.633 200.724 441.633 201.703V206H439.797V197.352H441.227L441.484 198.523H441.586C441.773 198.221 442.005 197.974 442.281 197.781C442.562 197.583 442.875 197.435 443.219 197.336C443.568 197.237 443.93 197.188 444.305 197.188ZM457.547 199.789L460.258 194.578H462.281L458.484 201.562V206H456.617V201.633L452.812 194.578H454.852L457.547 199.789ZM471.25 201.656C471.25 202.375 471.156 203.013 470.969 203.57C470.781 204.128 470.508 204.599 470.148 204.984C469.789 205.365 469.357 205.656 468.852 205.859C468.346 206.057 467.776 206.156 467.141 206.156C466.547 206.156 466.003 206.057 465.508 205.859C465.013 205.656 464.583 205.365 464.219 204.984C463.859 204.599 463.581 204.128 463.383 203.57C463.185 203.013 463.086 202.375 463.086 201.656C463.086 200.703 463.25 199.896 463.578 199.234C463.911 198.568 464.385 198.06 465 197.711C465.615 197.362 466.346 197.188 467.195 197.188C467.992 197.188 468.695 197.362 469.305 197.711C469.914 198.06 470.391 198.568 470.734 199.234C471.078 199.901 471.25 200.708 471.25 201.656ZM464.977 201.656C464.977 202.286 465.052 202.826 465.203 203.273C465.359 203.721 465.599 204.065 465.922 204.305C466.245 204.539 466.661 204.656 467.172 204.656C467.682 204.656 468.099 204.539 468.422 204.305C468.745 204.065 468.982 203.721 469.133 203.273C469.284 202.826 469.359 202.286 469.359 201.656C469.359 201.026 469.284 200.492 469.133 200.055C468.982 199.612 468.745 199.276 468.422 199.047C468.099 198.812 467.68 198.695 467.164 198.695C466.404 198.695 465.849 198.951 465.5 199.461C465.151 199.971 464.977 200.703 464.977 201.656ZM480.898 197.352V206H479.453L479.203 204.836H479.102C478.919 205.133 478.688 205.38 478.406 205.578C478.125 205.771 477.812 205.914 477.469 206.008C477.125 206.107 476.763 206.156 476.383 206.156C475.732 206.156 475.174 206.047 474.711 205.828C474.253 205.604 473.901 205.26 473.656 204.797C473.411 204.333 473.289 203.734 473.289 203V197.352H475.133V202.656C475.133 203.328 475.268 203.831 475.539 204.164C475.815 204.497 476.242 204.664 476.82 204.664C477.378 204.664 477.82 204.549 478.148 204.32C478.477 204.091 478.708 203.753 478.844 203.305C478.984 202.857 479.055 202.307 479.055 201.656V197.352H480.898ZM487.914 197.188C488.06 197.188 488.219 197.195 488.391 197.211C488.562 197.227 488.711 197.247 488.836 197.273L488.664 198.992C488.555 198.961 488.419 198.938 488.258 198.922C488.102 198.906 487.961 198.898 487.836 198.898C487.508 198.898 487.195 198.953 486.898 199.062C486.602 199.167 486.339 199.328 486.109 199.547C485.88 199.76 485.701 200.029 485.57 200.352C485.44 200.674 485.375 201.049 485.375 201.477V206H483.531V197.352H484.969L485.219 198.875H485.305C485.477 198.568 485.69 198.286 485.945 198.031C486.201 197.776 486.492 197.573 486.82 197.422C487.154 197.266 487.518 197.188 487.914 197.188ZM498.742 206H496.859V196.172H493.516V194.578H502.078V196.172H498.742V206ZM508.023 197.188C508.169 197.188 508.328 197.195 508.5 197.211C508.672 197.227 508.82 197.247 508.945 197.273L508.773 198.992C508.664 198.961 508.529 198.938 508.367 198.922C508.211 198.906 508.07 198.898 507.945 198.898C507.617 198.898 507.305 198.953 507.008 199.062C506.711 199.167 506.448 199.328 506.219 199.547C505.99 199.76 505.81 200.029 505.68 200.352C505.549 200.674 505.484 201.049 505.484 201.477V206H503.641V197.352H505.078L505.328 198.875H505.414C505.586 198.568 505.799 198.286 506.055 198.031C506.31 197.776 506.602 197.573 506.93 197.422C507.263 197.266 507.628 197.188 508.023 197.188ZM512.383 197.352V206H510.547V197.352H512.383ZM511.477 194.039C511.758 194.039 512 194.115 512.203 194.266C512.411 194.417 512.516 194.677 512.516 195.047C512.516 195.411 512.411 195.672 512.203 195.828C512 195.979 511.758 196.055 511.477 196.055C511.185 196.055 510.938 195.979 510.734 195.828C510.536 195.672 510.438 195.411 510.438 195.047C510.438 194.677 510.536 194.417 510.734 194.266C510.938 194.115 511.185 194.039 511.477 194.039ZM519.453 197.188C520.479 197.188 521.302 197.562 521.922 198.312C522.547 199.062 522.859 200.177 522.859 201.656C522.859 202.635 522.714 203.461 522.422 204.133C522.135 204.799 521.732 205.305 521.211 205.648C520.695 205.987 520.094 206.156 519.406 206.156C518.969 206.156 518.589 206.099 518.266 205.984C517.943 205.87 517.667 205.721 517.438 205.539C517.208 205.352 517.016 205.148 516.859 204.93H516.75C516.776 205.138 516.799 205.37 516.82 205.625C516.846 205.875 516.859 206.104 516.859 206.312V209.836H515.016V197.352H516.516L516.773 198.547H516.859C517.021 198.302 517.216 198.076 517.445 197.867C517.68 197.659 517.961 197.495 518.289 197.375C518.622 197.25 519.01 197.188 519.453 197.188ZM518.961 198.688C518.456 198.688 518.049 198.789 517.742 198.992C517.44 199.19 517.219 199.49 517.078 199.891C516.943 200.292 516.87 200.794 516.859 201.398V201.656C516.859 202.297 516.924 202.841 517.055 203.289C517.19 203.732 517.411 204.07 517.719 204.305C518.031 204.534 518.453 204.648 518.984 204.648C519.432 204.648 519.802 204.526 520.094 204.281C520.391 204.036 520.612 203.688 520.758 203.234C520.904 202.781 520.977 202.247 520.977 201.633C520.977 200.701 520.81 199.977 520.477 199.461C520.148 198.945 519.643 198.688 518.961 198.688Z" fill="white"/>
<line x1="36.3191" y1="164.5" x2="566.769" y2="164.5" stroke="#2A2A2A"/>
</svg>
